<?xml version="1.0" encoding="UTF-8" standalone="no"?>
<!-- Created with Inkscape (http://www.inkscape.org/) -->

<svg
   xmlns:dc="http://purl.org/dc/elements/1.1/"
   xmlns:cc="http://creativecommons.org/ns#"
   xmlns:rdf="http://www.w3.org/1999/02/22-rdf-syntax-ns#"
   xmlns:svg="http://www.w3.org/2000/svg"
   xmlns="http://www.w3.org/2000/svg"
   xmlns:sodipodi="http://sodipodi.sourceforge.net/DTD/sodipodi-0.dtd"
   xmlns:inkscape="http://www.inkscape.org/namespaces/inkscape"
   width="512"
   height="512"
   id="svg2985"
   version="1.1"
   inkscape:version="0.48.5 r10040"
   sodipodi:docname="logo-whatsapp.svg">
  <defs
     id="defs2987" />
  <sodipodi:namedview
     id="base"
     pagecolor="#ffffff"
     bordercolor="#666666"
     borderopacity="1.0"
     inkscape:pageopacity="1"
     inkscape:pageshadow="2"
     inkscape:zoom="0.97851562"
     inkscape:cx="256"
     inkscape:cy="256"
     inkscape:document-units="px"
     inkscape:current-layer="layer2"
     showgrid="false"
     inkscape:window-width="1024"
     inkscape:window-height="721"
     inkscape:window-x="-4"
     inkscape:window-y="-4"
     inkscape:window-maximized="1"
     width="512px" />
  <metadata
     id="metadata2990">
    <rdf:RDF>
      <cc:Work
         rdf:about="">
        <dc:format>image/svg+xml</dc:format>
        <dc:type
           rdf:resource="http://purl.org/dc/dcmitype/StillImage" />
        <dc:title></dc:title>
      </cc:Work>
    </rdf:RDF>
  </metadata>
  <g
     inkscape:label="Calque 1"
     inkscape:groupmode="layer"
     id="layer1"
     transform="translate(0,-540.36218)" />
  <g
     inkscape:groupmode="layer"
     id="layer2"
     inkscape:label="Logo"
     style="display:inline">
    <path
       style="fill:#ffffff;fill-opacity:0.39215686;stroke:#000000;stroke-width:1.06058574;stroke-opacity:1"
       d="m 285.125,46.78125 c -110.04203,0 -199.25,88.38749 -199.25,197.4375 0,36.22041 9.853926,70.16172 27.03125,99.34375 -7.1813,18.37859 -34.71875,108.15625 -34.71875,108.15625 l 110.96875,-34.4375 c 28.46908,15.53775 61.17059,24.40625 95.96875,24.40625 110.04203,0 199.25,-88.41874 199.25,-197.46875 0,-109.05001 -89.20797,-197.4375 -199.25,-197.4375 z"
       id="path2994"
       inkscape:connector-curvature="0" />
    <path
       inkscape:connector-curvature="0"
       style="fill:#009f01;fill-opacity:1;stroke:#000000;stroke-width:0.88050497000000005;stroke-opacity:1"
       d="m 285.09135,82.696017 c -91.6291,0 -162.24325,73.236923 -165.91022,163.428153 -1.80658,44.43393 16.51537,72.89005 30.81847,97.04536 -5.97967,15.21282 -19.51515,56.64618 -19.51515,56.64618 l 60.60492,-17.30472 c 23.70545,12.86131 65.02646,27.06718 94.00198,27.06718 91.62909,0 165.91021,-73.18828 165.91021,-163.454 0,-90.26574 -74.28112,-163.428153 -165.91021,-163.428153 z"
       id="path2994-1"
       sodipodi:nodetypes="sscccsss" />
  </g>
  <g
     inkscape:groupmode="layer"
     id="layer3"
     inkscape:label="Telephone"
     sodipodi:insensitive="true"
     style="display:inline">
    <path
       style="fill:#ffffff;stroke:#000000;stroke-width:1px;stroke-linecap:butt;stroke-linejoin:miter;stroke-opacity:1"
       d="m 188.03992,224.31936 c 0.51098,2.04391 13.38576,28.86845 22.99401,41.38922 13.27309,17.29652 29.29906,32.76218 47.00998,45.47705 19.30737,13.86098 40.09725,27.83575 63.36128,32.70259 13.03061,2.72601 27.18065,1.1382 39.08982,-4.34331 9.852,-4.53465 17.42021,-12.38077 22.48303,-21.97205 3.1374,-5.94364 4.34332,-20.18364 4.34332,-20.18364 0,0 -15.92548,-9.96407 -24.52694,-14.56287 -8.60147,-4.5988 -27.08184,-13.02994 -27.08184,-13.02994 l -28.61478,27.59281 c 0,0 -28.57559,-14.84651 -40.36726,-25.5489 -10.06618,-9.13629 -17.33353,-20.99153 -25.03793,-32.19162 -2.59489,-3.77225 -7.10978,-11.75249 -7.10978,-11.75249 0,0 13.74481,-10.8736 16.30739,-19.16168 2.73963,-8.86069 -0.14091,-18.84454 -2.55489,-27.8483 -1.89459,-7.06652 -9.19761,-19.92815 -9.19761,-19.92815 l -4.08782,-9.1976 -21.97206,-4.08783 c 0,0 -13.44996,8.193 -17.88422,14.0519 -4.553,6.01579 -8.68663,21.20559 -8.68663,21.20559 0,0 -4.50323,14.87715 -4.08783,22.48303 0.35854,6.56489 5.62076,18.90619 5.62076,18.90619 z"
       id="path3786"
       inkscape:connector-curvature="0"
       sodipodi:nodetypes="cssssscsccsscsscccscsc" />
  </g>
</svg>
